<svg xmlns="http://www.w3.org/2000/svg" width="2896" height="2896" viewBox="0 0 2896 2896">
  <path d="M 1452 873 L 1437 889 L 1428 889 L 1419 898 L 1412 897 L 1397 913 L 1388 913 L 1381 921 L 1372 921 L 1363 930 L 1356 929 L 1341 945 L 1332 945 L 1323 954 L 1316 953 L 1301 969 L 1292 969 L 1283 978 L 1276 977 L 1261 993 L 1252 993 L 1243 1002 L 1236 1001 L 1221 1017 L 1212 1017 L 1205 1025 L 1196 1025 L 1189 1033 L 1180 1033 L 1171 1042 L 1164 1041 L 1149 1057 L 1140 1057 L 1131 1066 L 1124 1065 L 1109 1081 L 1100 1081 L 1091 1090 L 1084 1089 L 1069 1105 L 1060 1105 L 1053 1113 L 1044 1113 L 1035 1122 L 1028 1121 L 1013 1137 L 1004 1137 L 995 1146 L 988 1145 L 973 1161 L 964 1161 L 946 1178 L 954 1188 L 954 1203 L 946 1210 L 954 1220 L 954 1491 L 945 1500 L 945 1507 L 954 1516 L 953 1525 L 946 1530 L 954 1540 L 954 1627 L 945 1636 L 945 1651 L 953 1658 L 954 1667 L 946 1674 L 953 1681 L 953 1686 L 945 1692 L 945 1699 L 954 1708 L 953 1731 L 964 1742 L 973 1742 L 988 1758 L 995 1757 L 1004 1766 L 1011 1765 L 1020 1774 L 1027 1773 L 1036 1782 L 1045 1782 L 1060 1798 L 1067 1797 L 1076 1806 L 1085 1806 L 1100 1822 L 1107 1821 L 1116 1830 L 1125 1830 L 1140 1846 L 1147 1845 L 1156 1854 L 1163 1853 L 1172 1862 L 1179 1861 L 1188 1870 L 1197 1870 L 1212 1886 L 1221 1886 L 1236 1902 L 1243 1901 L 1252 1910 L 1261 1910 L 1276 1926 L 1283 1925 L 1292 1934 L 1301 1934 L 1316 1950 L 1323 1949 L 1332 1958 L 1339 1957 L 1348 1966 L 1355 1965 L 1364 1974 L 1373 1974 L 1388 1990 L 1395 1989 L 1404 1998 L 1413 1998 L 1428 2014 L 1437 2014 L 1452 2030 L 1459 2030 L 1466 2022 L 1475 2022 L 1490 2006 L 1499 2006 L 1514 1990 L 1523 1990 L 1530 1982 L 1539 1982 L 1548 1973 L 1555 1974 L 1570 1958 L 1579 1958 L 1588 1949 L 1595 1950 L 1610 1934 L 1619 1934 L 1628 1925 L 1635 1926 L 1650 1910 L 1659 1910 L 1668 1901 L 1675 1902 L 1690 1886 L 1699 1886 L 1714 1870 L 1723 1870 L 1730 1862 L 1739 1862 L 1746 1854 L 1755 1854 L 1764 1845 L 1771 1846 L 1786 1830 L 1795 1830 L 1804 1821 L 1811 1822 L 1826 1806 L 1835 1806 L 1844 1797 L 1851 1798 L 1866 1782 L 1875 1782 L 1884 1773 L 1891 1774 L 1906 1758 L 1923 1758 L 1938 1742 L 1947 1742 L 1966 1723 L 1966 1676 L 1957 1667 L 1957 1228 L 1965 1221 L 1957 1211 L 1957 1188 L 1965 1178 L 1947 1161 L 1938 1161 L 1923 1145 L 1916 1146 L 1907 1137 L 1898 1137 L 1883 1121 L 1876 1122 L 1867 1113 L 1860 1114 L 1851 1105 L 1842 1105 L 1827 1089 L 1820 1090 L 1811 1081 L 1802 1081 L 1787 1065 L 1780 1066 L 1771 1057 L 1762 1057 L 1747 1041 L 1740 1042 L 1731 1033 L 1724 1034 L 1715 1025 L 1708 1026 L 1699 1017 L 1690 1017 L 1675 1001 L 1668 1002 L 1659 993 L 1650 993 L 1635 977 L 1628 978 L 1619 969 L 1610 969 L 1595 953 L 1586 953 L 1571 937 L 1564 938 L 1555 929 L 1548 930 L 1539 921 L 1532 922 L 1523 913 L 1514 913 L 1499 897 L 1492 898 L 1483 889 L 1474 889 L 1459 873 Z M 1000 1222 L 1006 1222 L 1020 1238 L 1027 1237 L 1036 1246 L 1045 1246 L 1060 1262 L 1067 1261 L 1076 1270 L 1085 1270 L 1100 1286 L 1107 1285 L 1116 1294 L 1125 1294 L 1140 1310 L 1157 1310 L 1172 1326 L 1181 1326 L 1194 1340 L 1194 1812 L 1191 1817 L 1185 1817 L 1179 1809 L 1170 1809 L 1163 1801 L 1154 1801 L 1147 1793 L 1138 1793 L 1123 1777 L 1116 1778 L 1107 1769 L 1098 1769 L 1083 1753 L 1076 1754 L 1067 1745 L 1058 1745 L 1043 1729 L 1036 1730 L 1027 1721 L 1018 1721 L 997 1699 L 997 1508 L 1001 1502 L 1011 1501 L 1020 1510 L 1027 1509 L 1036 1518 L 1045 1518 L 1060 1534 L 1067 1533 L 1076 1542 L 1085 1542 L 1100 1558 L 1107 1557 L 1116 1566 L 1123 1565 L 1132 1574 L 1141 1574 L 1148 1582 L 1158 1579 L 1158 1540 L 1147 1529 L 1140 1530 L 1123 1513 L 1116 1514 L 1107 1505 L 1098 1505 L 1083 1489 L 1076 1490 L 1067 1481 L 1058 1481 L 1043 1465 L 1034 1465 L 1019 1449 L 1010 1449 L 997 1435 L 997 1227 Z M 1022 1176 L 1027 1173 L 1035 1174 L 1042 1166 L 1051 1166 L 1060 1157 L 1067 1158 L 1082 1142 L 1091 1142 L 1098 1134 L 1107 1134 L 1114 1126 L 1123 1126 L 1132 1117 L 1139 1118 L 1154 1102 L 1163 1102 L 1172 1093 L 1179 1094 L 1194 1078 L 1203 1078 L 1212 1069 L 1221 1070 L 1228 1078 L 1237 1078 L 1244 1086 L 1253 1086 L 1268 1102 L 1275 1101 L 1284 1110 L 1291 1109 L 1300 1118 L 1309 1118 L 1324 1134 L 1331 1133 L 1340 1142 L 1349 1142 L 1364 1158 L 1371 1157 L 1380 1166 L 1387 1165 L 1396 1174 L 1405 1174 L 1420 1190 L 1427 1189 L 1436 1198 L 1443 1197 L 1452 1206 L 1461 1206 L 1476 1222 L 1485 1222 L 1500 1238 L 1507 1237 L 1516 1246 L 1523 1245 L 1532 1254 L 1539 1253 L 1548 1262 L 1557 1262 L 1572 1278 L 1579 1277 L 1588 1286 L 1597 1286 L 1612 1302 L 1619 1301 L 1628 1310 L 1637 1310 L 1652 1326 L 1661 1326 L 1673 1338 L 1673 1539 L 1676 1542 L 1683 1542 L 1698 1526 L 1707 1526 L 1718 1515 L 1718 1337 L 1724 1333 L 1731 1334 L 1746 1318 L 1755 1318 L 1770 1302 L 1779 1302 L 1786 1294 L 1795 1294 L 1804 1285 L 1811 1286 L 1826 1270 L 1835 1270 L 1844 1261 L 1851 1262 L 1866 1246 L 1875 1246 L 1884 1237 L 1891 1238 L 1905 1222 L 1911 1222 L 1914 1227 L 1913 1437 L 1893 1457 L 1884 1457 L 1875 1466 L 1868 1465 L 1853 1481 L 1844 1481 L 1835 1490 L 1828 1489 L 1813 1505 L 1804 1505 L 1795 1514 L 1788 1513 L 1773 1529 L 1764 1529 L 1755 1538 L 1748 1537 L 1733 1553 L 1724 1553 L 1717 1561 L 1708 1561 L 1699 1570 L 1692 1569 L 1677 1585 L 1668 1585 L 1661 1593 L 1652 1593 L 1643 1602 L 1636 1601 L 1621 1617 L 1612 1617 L 1603 1626 L 1596 1625 L 1581 1641 L 1572 1641 L 1563 1650 L 1556 1649 L 1539 1666 L 1532 1665 L 1513 1684 L 1512 1722 L 1517 1725 L 1522 1718 L 1531 1718 L 1538 1710 L 1547 1710 L 1554 1702 L 1563 1702 L 1572 1693 L 1579 1694 L 1594 1678 L 1603 1678 L 1612 1669 L 1619 1670 L 1634 1654 L 1643 1654 L 1652 1645 L 1659 1646 L 1674 1630 L 1683 1630 L 1692 1621 L 1699 1622 L 1714 1606 L 1723 1606 L 1730 1598 L 1739 1598 L 1746 1590 L 1755 1590 L 1764 1581 L 1771 1582 L 1786 1566 L 1795 1566 L 1804 1557 L 1811 1558 L 1826 1542 L 1835 1542 L 1844 1533 L 1851 1534 L 1866 1518 L 1875 1518 L 1892 1501 L 1907 1501 L 1914 1508 L 1913 1710 L 1907 1714 L 1900 1713 L 1891 1722 L 1884 1721 L 1875 1730 L 1868 1729 L 1853 1745 L 1844 1745 L 1835 1754 L 1828 1753 L 1813 1769 L 1804 1769 L 1795 1778 L 1788 1777 L 1773 1793 L 1764 1793 L 1757 1801 L 1748 1801 L 1741 1809 L 1732 1809 L 1726 1817 L 1720 1817 L 1717 1812 L 1719 1653 L 1714 1650 L 1709 1657 L 1700 1657 L 1691 1666 L 1684 1665 L 1673 1676 L 1673 1845 L 1661 1857 L 1652 1857 L 1643 1866 L 1636 1865 L 1621 1881 L 1612 1881 L 1605 1889 L 1596 1889 L 1587 1898 L 1580 1897 L 1565 1913 L 1556 1913 L 1547 1922 L 1540 1921 L 1525 1937 L 1516 1937 L 1507 1946 L 1500 1945 L 1486 1961 L 1480 1961 L 1477 1956 L 1477 1507 L 1480 1502 L 1486 1502 L 1492 1510 L 1507 1509 L 1516 1518 L 1533 1518 L 1540 1526 L 1562 1527 L 1565 1522 L 1558 1517 L 1558 1508 L 1549 1499 L 1550 1492 L 1534 1477 L 1534 1468 L 1526 1461 L 1526 1452 L 1518 1445 L 1518 1436 L 1509 1427 L 1510 1420 L 1494 1405 L 1494 1396 L 1486 1389 L 1486 1380 L 1478 1373 L 1478 1364 L 1470 1357 L 1470 1348 L 1462 1341 L 1462 1331 L 1458 1330 L 1441 1348 L 1442 1355 L 1433 1364 L 1434 1371 L 1425 1380 L 1426 1387 L 1417 1396 L 1417 1405 L 1401 1420 L 1402 1427 L 1393 1436 L 1394 1443 L 1385 1452 L 1386 1459 L 1377 1468 L 1378 1475 L 1369 1484 L 1369 1493 L 1353 1508 L 1354 1515 L 1346 1522 L 1349 1527 L 1363 1526 L 1372 1517 L 1395 1518 L 1402 1510 L 1411 1510 L 1420 1501 L 1433 1505 L 1433 1695 L 1425 1697 L 1419 1689 L 1412 1690 L 1403 1681 L 1394 1681 L 1379 1665 L 1370 1665 L 1355 1649 L 1348 1650 L 1339 1641 L 1330 1641 L 1315 1625 L 1308 1626 L 1299 1617 L 1290 1617 L 1283 1609 L 1276 1609 L 1273 1621 L 1266 1626 L 1274 1636 L 1273 1651 L 1292 1670 L 1299 1669 L 1308 1678 L 1315 1677 L 1324 1686 L 1331 1685 L 1340 1694 L 1349 1694 L 1364 1710 L 1371 1709 L 1380 1718 L 1389 1718 L 1404 1734 L 1411 1733 L 1420 1742 L 1427 1741 L 1433 1745 L 1433 1959 L 1425 1961 L 1411 1945 L 1404 1946 L 1395 1937 L 1386 1937 L 1371 1921 L 1364 1922 L 1355 1913 L 1346 1913 L 1331 1897 L 1324 1898 L 1315 1889 L 1306 1889 L 1291 1873 L 1284 1874 L 1275 1865 L 1268 1866 L 1259 1857 L 1250 1857 L 1237 1843 L 1237 1340 L 1250 1326 L 1259 1326 L 1274 1310 L 1283 1310 L 1290 1302 L 1299 1302 L 1306 1294 L 1315 1294 L 1324 1285 L 1331 1286 L 1346 1270 L 1355 1270 L 1364 1261 L 1371 1262 L 1386 1246 L 1395 1246 L 1404 1237 L 1411 1238 L 1414 1228 L 1395 1209 L 1356 1209 L 1341 1225 L 1332 1225 L 1323 1234 L 1316 1233 L 1301 1249 L 1292 1249 L 1283 1258 L 1276 1257 L 1261 1273 L 1252 1273 L 1237 1289 L 1228 1289 L 1219 1298 L 1204 1298 L 1179 1273 L 1172 1274 L 1163 1265 L 1156 1266 L 1147 1257 L 1138 1257 L 1123 1241 L 1116 1242 L 1107 1233 L 1098 1233 L 1083 1217 L 1076 1218 L 1067 1209 L 1058 1209 L 1043 1193 L 1034 1193 L 1022 1182 Z M 1270 1041 L 1282 1030 L 1291 1030 L 1306 1014 L 1315 1014 L 1324 1005 L 1331 1006 L 1346 990 L 1355 990 L 1364 981 L 1371 982 L 1386 966 L 1395 966 L 1404 957 L 1411 958 L 1426 942 L 1435 942 L 1442 934 L 1451 934 L 1457 926 L 1462 926 L 1476 942 L 1485 942 L 1500 958 L 1507 957 L 1516 966 L 1523 965 L 1532 974 L 1541 974 L 1556 990 L 1565 990 L 1580 1006 L 1587 1005 L 1596 1014 L 1603 1013 L 1612 1022 L 1619 1021 L 1628 1030 L 1637 1030 L 1649 1041 L 1647 1049 L 1636 1049 L 1621 1065 L 1612 1065 L 1605 1073 L 1596 1073 L 1587 1082 L 1580 1081 L 1565 1097 L 1556 1097 L 1549 1105 L 1540 1105 L 1531 1114 L 1524 1113 L 1507 1130 L 1499 1129 L 1498 1133 L 1516 1150 L 1523 1149 L 1532 1158 L 1547 1158 L 1562 1142 L 1571 1142 L 1578 1134 L 1587 1134 L 1594 1126 L 1603 1126 L 1612 1117 L 1619 1118 L 1634 1102 L 1643 1102 L 1652 1093 L 1659 1094 L 1674 1078 L 1683 1078 L 1690 1070 L 1699 1069 L 1708 1078 L 1717 1078 L 1732 1094 L 1739 1093 L 1748 1102 L 1755 1101 L 1764 1110 L 1773 1110 L 1788 1126 L 1795 1125 L 1804 1134 L 1811 1133 L 1820 1142 L 1829 1142 L 1844 1158 L 1851 1157 L 1860 1166 L 1869 1166 L 1876 1174 L 1887 1174 L 1889 1182 L 1869 1201 L 1860 1201 L 1853 1209 L 1844 1209 L 1835 1218 L 1828 1217 L 1813 1233 L 1804 1233 L 1795 1242 L 1788 1241 L 1773 1257 L 1764 1257 L 1757 1265 L 1748 1265 L 1739 1274 L 1732 1273 L 1717 1289 L 1708 1289 L 1701 1297 L 1692 1298 L 1683 1289 L 1674 1289 L 1659 1273 L 1650 1273 L 1635 1257 L 1628 1258 L 1619 1249 L 1610 1249 L 1595 1233 L 1588 1234 L 1579 1225 L 1570 1225 L 1555 1209 L 1538 1209 L 1523 1193 L 1516 1194 L 1507 1185 L 1498 1185 L 1483 1169 L 1476 1170 L 1467 1161 L 1458 1161 L 1443 1145 L 1436 1146 L 1427 1137 L 1420 1138 L 1411 1129 L 1402 1129 L 1387 1113 L 1380 1114 L 1371 1105 L 1362 1105 L 1347 1089 L 1340 1090 L 1331 1081 L 1322 1081 L 1307 1065 L 1300 1066 L 1291 1057 L 1282 1057 L 1270 1046 Z M 1452 633 L 1437 649 L 1428 649 L 1421 657 L 1412 657 L 1403 666 L 1396 665 L 1381 681 L 1372 681 L 1365 689 L 1356 689 L 1347 698 L 1340 697 L 1325 713 L 1316 713 L 1307 722 L 1300 721 L 1285 737 L 1276 737 L 1267 746 L 1260 745 L 1245 761 L 1236 761 L 1229 769 L 1220 769 L 1211 778 L 1204 777 L 1189 793 L 1180 793 L 1171 802 L 1164 801 L 1149 817 L 1140 817 L 1131 826 L 1124 825 L 1109 841 L 1100 841 L 1091 850 L 1084 849 L 1069 865 L 1052 865 L 1037 881 L 1028 881 L 1021 889 L 1012 889 L 1003 898 L 996 897 L 981 913 L 972 913 L 957 929 L 948 929 L 939 938 L 932 937 L 917 953 L 908 953 L 899 962 L 892 961 L 877 977 L 868 977 L 861 985 L 852 985 L 845 993 L 836 993 L 827 1002 L 820 1001 L 805 1017 L 796 1017 L 787 1026 L 780 1025 L 765 1041 L 756 1041 L 745 1052 L 745 1835 L 756 1846 L 765 1846 L 780 1862 L 787 1861 L 796 1870 L 805 1870 L 820 1886 L 827 1885 L 836 1894 L 845 1894 L 860 1910 L 867 1909 L 876 1918 L 885 1918 L 900 1934 L 907 1933 L 916 1942 L 923 1941 L 932 1950 L 941 1950 L 956 1966 L 963 1965 L 972 1974 L 981 1974 L 996 1990 L 1003 1989 L 1012 1998 L 1021 1998 L 1036 2014 L 1043 2013 L 1052 2022 L 1061 2022 L 1076 2038 L 1083 2037 L 1092 2046 L 1101 2046 L 1116 2062 L 1123 2061 L 1132 2070 L 1139 2069 L 1148 2078 L 1155 2077 L 1164 2086 L 1173 2086 L 1188 2102 L 1195 2101 L 1204 2110 L 1213 2110 L 1228 2126 L 1235 2125 L 1244 2134 L 1253 2134 L 1268 2150 L 1275 2149 L 1284 2158 L 1291 2157 L 1300 2166 L 1309 2166 L 1324 2182 L 1331 2181 L 1340 2190 L 1349 2190 L 1364 2206 L 1371 2205 L 1380 2214 L 1389 2214 L 1404 2230 L 1411 2229 L 1420 2238 L 1427 2237 L 1436 2246 L 1445 2246 L 1452 2254 L 1467 2254 L 1474 2246 L 1483 2246 L 1498 2230 L 1507 2230 L 1522 2214 L 1531 2214 L 1540 2205 L 1547 2206 L 1562 2190 L 1571 2190 L 1580 2181 L 1587 2182 L 1602 2166 L 1611 2166 L 1618 2158 L 1627 2158 L 1634 2150 L 1643 2150 L 1652 2141 L 1659 2142 L 1674 2126 L 1683 2126 L 1692 2117 L 1699 2118 L 1714 2102 L 1723 2102 L 1732 2093 L 1739 2094 L 1754 2078 L 1763 2078 L 1772 2069 L 1779 2070 L 1794 2054 L 1803 2054 L 1810 2046 L 1819 2046 L 1828 2037 L 1835 2038 L 1850 2022 L 1859 2022 L 1868 2013 L 1875 2014 L 1890 1998 L 1899 1998 L 1908 1989 L 1915 1990 L 1930 1974 L 1939 1974 L 1946 1966 L 1955 1966 L 1962 1958 L 1971 1958 L 1980 1949 L 1987 1950 L 2002 1934 L 2011 1934 L 2020 1925 L 2027 1926 L 2042 1910 L 2051 1910 L 2060 1901 L 2067 1902 L 2082 1886 L 2091 1886 L 2100 1877 L 2107 1878 L 2122 1862 L 2131 1862 L 2140 1853 L 2147 1854 L 2166 1835 L 2166 1052 L 2155 1041 L 2146 1041 L 2131 1025 L 2124 1026 L 2115 1017 L 2106 1017 L 2091 1001 L 2084 1002 L 2075 993 L 2066 993 L 2051 977 L 2044 978 L 2035 969 L 2026 969 L 2011 953 L 1994 953 L 1979 937 L 1972 938 L 1963 929 L 1954 929 L 1939 913 L 1930 913 L 1915 897 L 1908 898 L 1899 889 L 1892 890 L 1883 881 L 1874 881 L 1859 865 L 1852 866 L 1843 857 L 1836 858 L 1827 849 L 1820 850 L 1811 841 L 1802 841 L 1787 825 L 1778 825 L 1763 809 L 1756 810 L 1747 801 L 1740 802 L 1731 793 L 1722 793 L 1707 777 L 1700 778 L 1691 769 L 1682 769 L 1667 753 L 1660 754 L 1651 745 L 1644 746 L 1635 737 L 1626 737 L 1611 721 L 1604 722 L 1595 713 L 1586 713 L 1571 697 L 1564 698 L 1555 689 L 1546 689 L 1531 673 L 1524 674 L 1515 665 L 1508 666 L 1499 657 L 1492 658 L 1483 649 L 1474 649 L 1459 633 Z M 1444 669 L 1467 669 L 1476 678 L 1483 677 L 1492 686 L 1499 685 L 1508 694 L 1517 694 L 1532 710 L 1539 709 L 1556 726 L 1563 725 L 1572 734 L 1581 734 L 1596 750 L 1603 749 L 1612 758 L 1621 758 L 1636 774 L 1653 774 L 1668 790 L 1675 789 L 1684 798 L 1693 798 L 1708 814 L 1715 813 L 1724 822 L 1733 822 L 1748 838 L 1755 837 L 1764 846 L 1773 846 L 1788 862 L 1795 861 L 1804 870 L 1811 869 L 1820 878 L 1829 878 L 1844 894 L 1851 893 L 1860 902 L 1869 902 L 1884 918 L 1891 917 L 1900 926 L 1909 926 L 1924 942 L 1931 941 L 1940 950 L 1947 949 L 1956 958 L 1963 957 L 1972 966 L 1981 966 L 1996 982 L 2003 981 L 2012 990 L 2021 990 L 2036 1006 L 2043 1005 L 2052 1014 L 2061 1014 L 2076 1030 L 2083 1029 L 2092 1038 L 2099 1037 L 2108 1046 L 2115 1045 L 2124 1054 L 2134 1054 L 2138 1060 L 2137 1830 L 2131 1834 L 2124 1833 L 2115 1842 L 2108 1841 L 2093 1857 L 2084 1857 L 2077 1865 L 2068 1865 L 2059 1874 L 2052 1873 L 2037 1889 L 2028 1889 L 2021 1897 L 2012 1897 L 2003 1906 L 1996 1905 L 1981 1921 L 1972 1921 L 1963 1930 L 1956 1929 L 1941 1945 L 1932 1945 L 1925 1953 L 1916 1953 L 1907 1962 L 1900 1961 L 1885 1977 L 1876 1977 L 1867 1986 L 1860 1985 L 1845 2001 L 1836 2001 L 1827 2010 L 1820 2009 L 1805 2025 L 1796 2025 L 1789 2033 L 1780 2033 L 1771 2042 L 1764 2041 L 1749 2057 L 1740 2057 L 1731 2066 L 1724 2065 L 1709 2081 L 1700 2081 L 1691 2090 L 1684 2089 L 1669 2105 L 1660 2105 L 1651 2114 L 1644 2113 L 1629 2129 L 1620 2129 L 1613 2137 L 1604 2137 L 1595 2146 L 1588 2145 L 1573 2161 L 1564 2161 L 1557 2169 L 1548 2169 L 1539 2178 L 1532 2177 L 1517 2193 L 1508 2193 L 1499 2202 L 1492 2201 L 1477 2217 L 1468 2217 L 1459 2226 L 1450 2225 L 1443 2217 L 1434 2217 L 1419 2201 L 1412 2202 L 1403 2193 L 1394 2193 L 1379 2177 L 1372 2178 L 1363 2169 L 1354 2169 L 1339 2153 L 1332 2154 L 1323 2145 L 1316 2146 L 1307 2137 L 1298 2137 L 1283 2121 L 1274 2121 L 1259 2105 L 1242 2105 L 1227 2089 L 1220 2090 L 1211 2081 L 1202 2081 L 1187 2065 L 1180 2066 L 1171 2057 L 1162 2057 L 1147 2041 L 1140 2042 L 1131 2033 L 1122 2033 L 1107 2017 L 1100 2018 L 1091 2009 L 1084 2010 L 1075 2001 L 1066 2001 L 1051 1985 L 1044 1986 L 1035 1977 L 1026 1977 L 1011 1961 L 1004 1962 L 995 1953 L 986 1953 L 971 1937 L 964 1938 L 955 1929 L 946 1929 L 931 1913 L 924 1914 L 915 1905 L 908 1906 L 899 1897 L 890 1897 L 875 1881 L 868 1882 L 859 1873 L 850 1873 L 835 1857 L 828 1858 L 819 1849 L 812 1850 L 803 1841 L 794 1841 L 773 1819 L 774 1057 L 780 1053 L 795 1054 L 810 1038 L 819 1038 L 826 1030 L 835 1030 L 844 1021 L 851 1022 L 866 1006 L 875 1006 L 890 990 L 899 990 L 908 981 L 915 982 L 930 966 L 947 966 L 962 950 L 971 950 L 980 941 L 987 942 L 1002 926 L 1011 926 L 1020 917 L 1027 918 L 1042 902 L 1051 902 L 1058 894 L 1067 894 L 1076 885 L 1083 886 L 1098 870 L 1107 870 L 1116 861 L 1123 862 L 1138 846 L 1147 846 L 1154 838 L 1163 838 L 1170 830 L 1179 830 L 1188 821 L 1195 822 L 1210 806 L 1219 806 L 1228 797 L 1235 798 L 1250 782 L 1259 782 L 1268 773 L 1275 774 L 1290 758 L 1299 758 L 1308 749 L 1315 750 L 1330 734 L 1339 734 L 1348 725 L 1355 726 L 1370 710 L 1379 710 L 1388 701 L 1395 702 L 1410 686 L 1419 686 L 1426 678 L 1435 678 Z M 1452 521 L 1437 537 L 1428 537 L 1419 546 L 1412 545 L 1397 561 L 1388 561 L 1381 569 L 1372 569 L 1363 578 L 1356 577 L 1341 593 L 1332 593 L 1325 601 L 1316 601 L 1307 610 L 1300 609 L 1285 625 L 1276 625 L 1267 634 L 1260 633 L 1245 649 L 1236 649 L 1227 658 L 1220 657 L 1205 673 L 1196 673 L 1187 682 L 1180 681 L 1165 697 L 1156 697 L 1147 706 L 1140 705 L 1125 721 L 1116 721 L 1109 729 L 1100 729 L 1091 738 L 1084 737 L 1069 753 L 1060 753 L 1051 762 L 1044 761 L 1029 777 L 1020 777 L 1011 786 L 1004 785 L 989 801 L 980 801 L 973 809 L 964 809 L 957 817 L 948 817 L 939 826 L 932 825 L 917 841 L 908 841 L 899 850 L 892 849 L 877 865 L 868 865 L 859 874 L 852 873 L 837 889 L 828 889 L 821 897 L 812 897 L 803 906 L 796 905 L 781 921 L 772 921 L 763 930 L 756 929 L 741 945 L 732 945 L 725 953 L 716 953 L 707 962 L 700 961 L 685 977 L 676 977 L 667 986 L 660 985 L 649 996 L 649 1883 L 657 1890 L 660 1902 L 667 1901 L 676 1910 L 685 1910 L 700 1926 L 707 1925 L 716 1934 L 725 1934 L 740 1950 L 747 1949 L 756 1958 L 763 1957 L 772 1966 L 781 1966 L 796 1982 L 803 1981 L 812 1990 L 819 1989 L 828 1998 L 837 1998 L 852 2014 L 861 2014 L 876 2030 L 883 2029 L 892 2038 L 899 2037 L 908 2046 L 917 2046 L 932 2062 L 939 2061 L 948 2070 L 957 2070 L 972 2086 L 979 2085 L 988 2094 L 995 2093 L 1004 2102 L 1013 2102 L 1028 2118 L 1035 2117 L 1044 2126 L 1053 2126 L 1068 2142 L 1075 2141 L 1084 2150 L 1091 2149 L 1100 2158 L 1109 2158 L 1124 2174 L 1131 2173 L 1140 2182 L 1149 2182 L 1164 2198 L 1171 2197 L 1180 2206 L 1189 2206 L 1204 2222 L 1211 2221 L 1220 2230 L 1227 2229 L 1236 2238 L 1243 2237 L 1252 2246 L 1261 2246 L 1276 2262 L 1283 2261 L 1292 2270 L 1301 2270 L 1316 2286 L 1323 2285 L 1332 2294 L 1341 2294 L 1356 2310 L 1363 2309 L 1372 2318 L 1381 2318 L 1396 2334 L 1403 2333 L 1412 2342 L 1421 2342 L 1436 2358 L 1443 2357 L 1452 2366 L 1459 2366 L 1466 2358 L 1475 2358 L 1490 2342 L 1499 2342 L 1508 2333 L 1515 2334 L 1530 2318 L 1539 2318 L 1546 2310 L 1555 2310 L 1564 2301 L 1571 2302 L 1586 2286 L 1595 2286 L 1610 2270 L 1627 2270 L 1642 2254 L 1651 2254 L 1660 2245 L 1667 2246 L 1682 2230 L 1691 2230 L 1700 2221 L 1707 2222 L 1722 2206 L 1731 2206 L 1740 2197 L 1747 2198 L 1762 2182 L 1771 2182 L 1778 2174 L 1787 2174 L 1796 2165 L 1803 2166 L 1818 2150 L 1827 2150 L 1836 2141 L 1843 2142 L 1858 2126 L 1867 2126 L 1876 2117 L 1883 2118 L 1898 2102 L 1907 2102 L 1914 2094 L 1923 2094 L 1930 2086 L 1939 2086 L 1948 2077 L 1955 2078 L 1970 2062 L 1979 2062 L 1988 2053 L 1995 2054 L 2010 2038 L 2019 2038 L 2028 2029 L 2035 2030 L 2050 2014 L 2059 2014 L 2066 2006 L 2075 2006 L 2084 1997 L 2091 1998 L 2106 1982 L 2115 1982 L 2124 1973 L 2131 1974 L 2146 1958 L 2155 1958 L 2164 1949 L 2171 1950 L 2186 1934 L 2195 1934 L 2204 1925 L 2211 1926 L 2226 1910 L 2235 1910 L 2244 1901 L 2251 1902 L 2262 1891 L 2262 996 L 2250 993 L 2235 977 L 2226 977 L 2211 961 L 2204 962 L 2195 953 L 2186 953 L 2171 937 L 2164 938 L 2155 929 L 2148 930 L 2139 921 L 2130 921 L 2115 905 L 2106 905 L 2091 889 L 2074 889 L 2059 873 L 2052 874 L 2043 865 L 2034 865 L 2019 849 L 2012 850 L 2003 841 L 1994 841 L 1979 825 L 1972 826 L 1963 817 L 1954 817 L 1939 801 L 1922 801 L 1907 785 L 1900 786 L 1891 777 L 1882 777 L 1867 761 L 1860 762 L 1851 753 L 1842 753 L 1827 737 L 1820 738 L 1811 729 L 1802 729 L 1787 713 L 1778 713 L 1763 697 L 1746 697 L 1731 681 L 1724 682 L 1715 673 L 1706 673 L 1691 657 L 1684 658 L 1675 649 L 1666 649 L 1651 633 L 1644 634 L 1635 625 L 1626 625 L 1611 609 L 1604 610 L 1595 601 L 1588 602 L 1579 593 L 1570 593 L 1555 577 L 1548 578 L 1539 569 L 1532 570 L 1523 561 L 1514 561 L 1499 545 L 1490 545 L 1475 529 L 1468 530 L 1459 521 Z M 1444 557 L 1467 557 L 1484 574 L 1491 573 L 1500 582 L 1507 581 L 1516 590 L 1525 590 L 1540 606 L 1547 605 L 1556 614 L 1563 613 L 1572 622 L 1581 622 L 1596 638 L 1603 637 L 1612 646 L 1621 646 L 1636 662 L 1643 661 L 1652 670 L 1661 670 L 1676 686 L 1683 685 L 1692 694 L 1699 693 L 1708 702 L 1717 702 L 1732 718 L 1741 718 L 1756 734 L 1773 734 L 1788 750 L 1795 749 L 1804 758 L 1813 758 L 1828 774 L 1835 773 L 1844 782 L 1853 782 L 1868 798 L 1875 797 L 1884 806 L 1891 805 L 1900 814 L 1909 814 L 1924 830 L 1931 829 L 1940 838 L 1949 838 L 1964 854 L 1971 853 L 1980 862 L 1989 862 L 2004 878 L 2011 877 L 2020 886 L 2029 886 L 2044 902 L 2051 901 L 2060 910 L 2067 909 L 2076 918 L 2083 917 L 2092 926 L 2101 926 L 2116 942 L 2125 942 L 2140 958 L 2147 957 L 2156 966 L 2163 965 L 2172 974 L 2181 974 L 2196 990 L 2203 989 L 2212 998 L 2221 998 L 2234 1012 L 2233 1877 L 2221 1889 L 2212 1889 L 2203 1898 L 2196 1897 L 2181 1913 L 2172 1913 L 2163 1922 L 2156 1921 L 2141 1937 L 2132 1937 L 2123 1946 L 2116 1945 L 2101 1961 L 2092 1961 L 2085 1969 L 2076 1969 L 2067 1978 L 2060 1977 L 2045 1993 L 2036 1993 L 2027 2002 L 2020 2001 L 2005 2017 L 1996 2017 L 1987 2026 L 1980 2025 L 1965 2041 L 1956 2041 L 1947 2050 L 1940 2049 L 1925 2065 L 1916 2065 L 1909 2073 L 1900 2073 L 1891 2082 L 1884 2081 L 1869 2097 L 1860 2097 L 1853 2105 L 1844 2105 L 1835 2114 L 1828 2113 L 1813 2129 L 1804 2129 L 1789 2145 L 1780 2145 L 1773 2153 L 1764 2153 L 1755 2162 L 1748 2161 L 1733 2177 L 1724 2177 L 1717 2185 L 1708 2185 L 1699 2194 L 1692 2193 L 1677 2209 L 1668 2209 L 1659 2218 L 1652 2217 L 1637 2233 L 1628 2233 L 1619 2242 L 1612 2241 L 1597 2257 L 1588 2257 L 1579 2266 L 1572 2265 L 1557 2281 L 1548 2281 L 1541 2289 L 1532 2289 L 1525 2297 L 1516 2297 L 1507 2306 L 1500 2305 L 1485 2321 L 1476 2321 L 1459 2338 L 1450 2337 L 1435 2321 L 1426 2321 L 1411 2305 L 1404 2306 L 1395 2297 L 1386 2297 L 1371 2281 L 1354 2281 L 1339 2265 L 1330 2265 L 1315 2249 L 1308 2250 L 1299 2241 L 1292 2242 L 1283 2233 L 1274 2233 L 1259 2217 L 1250 2217 L 1235 2201 L 1228 2202 L 1219 2193 L 1212 2194 L 1203 2185 L 1194 2185 L 1179 2169 L 1172 2170 L 1163 2161 L 1156 2162 L 1147 2153 L 1138 2153 L 1123 2137 L 1116 2138 L 1107 2129 L 1098 2129 L 1083 2113 L 1076 2114 L 1067 2105 L 1058 2105 L 1043 2089 L 1036 2090 L 1027 2081 L 1020 2082 L 1011 2073 L 1004 2074 L 995 2065 L 986 2065 L 971 2049 L 964 2050 L 955 2041 L 946 2041 L 931 2025 L 924 2026 L 915 2017 L 906 2017 L 891 2001 L 884 2002 L 875 1993 L 866 1993 L 851 1977 L 844 1978 L 835 1969 L 828 1970 L 819 1961 L 810 1961 L 795 1945 L 788 1946 L 779 1937 L 770 1937 L 755 1921 L 748 1922 L 739 1913 L 730 1913 L 715 1897 L 708 1898 L 699 1889 L 690 1889 L 677 1875 L 678 1010 L 690 998 L 699 998 L 708 989 L 715 990 L 730 974 L 739 974 L 748 965 L 755 966 L 770 950 L 779 950 L 786 942 L 795 942 L 802 934 L 811 934 L 820 925 L 827 926 L 842 910 L 851 910 L 860 901 L 867 902 L 882 886 L 891 886 L 900 877 L 907 878 L 922 862 L 931 862 L 940 853 L 947 854 L 962 838 L 971 838 L 978 830 L 987 830 L 996 821 L 1003 822 L 1018 806 L 1027 806 L 1036 797 L 1043 798 L 1058 782 L 1067 782 L 1074 774 L 1083 774 L 1092 765 L 1099 766 L 1114 750 L 1123 750 L 1138 734 L 1155 734 L 1170 718 L 1179 718 L 1188 709 L 1195 710 L 1210 694 L 1219 694 L 1228 685 L 1235 686 L 1250 670 L 1259 670 L 1268 661 L 1275 662 L 1290 646 L 1299 646 L 1308 637 L 1315 638 L 1330 622 L 1339 622 L 1346 614 L 1355 614 L 1364 605 L 1371 606 L 1386 590 L 1395 590 L 1404 581 L 1411 582 L 1426 566 L 1435 566 Z M 1444 417 L 1429 433 L 1420 433 L 1411 442 L 1404 441 L 1389 457 L 1380 457 L 1371 466 L 1364 465 L 1349 481 L 1340 481 L 1333 489 L 1324 489 L 1315 498 L 1308 497 L 1293 513 L 1284 513 L 1275 522 L 1268 521 L 1253 537 L 1244 537 L 1235 546 L 1228 545 L 1213 561 L 1204 561 L 1195 570 L 1188 569 L 1173 585 L 1164 585 L 1157 593 L 1148 593 L 1141 601 L 1132 601 L 1123 610 L 1116 609 L 1101 625 L 1092 625 L 1083 634 L 1076 633 L 1061 649 L 1052 649 L 1043 658 L 1036 657 L 1021 673 L 1012 673 L 1003 682 L 996 681 L 981 697 L 972 697 L 963 706 L 956 705 L 941 721 L 932 721 L 925 729 L 916 729 L 909 737 L 900 737 L 891 746 L 884 745 L 869 761 L 860 761 L 851 770 L 844 769 L 829 785 L 820 785 L 811 794 L 804 793 L 789 809 L 780 809 L 773 817 L 764 817 L 755 826 L 748 825 L 733 841 L 724 841 L 715 850 L 708 849 L 693 865 L 684 865 L 675 874 L 668 873 L 653 889 L 644 889 L 635 898 L 628 897 L 613 913 L 604 913 L 597 921 L 588 921 L 579 930 L 572 929 L 561 940 L 561 1947 L 572 1958 L 579 1957 L 588 1966 L 595 1965 L 604 1974 L 613 1974 L 628 1990 L 635 1989 L 644 1998 L 653 1998 L 668 2014 L 677 2014 L 692 2030 L 699 2029 L 708 2038 L 715 2037 L 724 2046 L 733 2046 L 748 2062 L 755 2061 L 764 2070 L 771 2069 L 780 2078 L 789 2078 L 804 2094 L 811 2093 L 820 2102 L 829 2102 L 844 2118 L 851 2117 L 860 2126 L 869 2126 L 884 2142 L 891 2141 L 900 2150 L 907 2149 L 916 2158 L 923 2157 L 932 2166 L 941 2166 L 956 2182 L 963 2181 L 972 2190 L 981 2190 L 996 2206 L 1005 2206 L 1020 2222 L 1027 2221 L 1036 2230 L 1043 2229 L 1052 2238 L 1061 2238 L 1076 2254 L 1083 2253 L 1092 2262 L 1099 2261 L 1108 2270 L 1117 2270 L 1132 2286 L 1139 2285 L 1148 2294 L 1157 2294 L 1172 2310 L 1179 2309 L 1188 2318 L 1197 2318 L 1212 2334 L 1219 2333 L 1228 2342 L 1235 2341 L 1244 2350 L 1253 2350 L 1268 2366 L 1275 2365 L 1284 2374 L 1291 2373 L 1300 2382 L 1309 2382 L 1324 2398 L 1333 2398 L 1348 2414 L 1355 2413 L 1364 2422 L 1371 2421 L 1380 2430 L 1389 2430 L 1404 2446 L 1411 2445 L 1420 2454 L 1429 2454 L 1444 2470 L 1459 2470 L 1466 2462 L 1475 2462 L 1482 2454 L 1491 2454 L 1500 2445 L 1507 2446 L 1522 2430 L 1531 2430 L 1538 2422 L 1547 2422 L 1556 2413 L 1563 2414 L 1578 2398 L 1587 2398 L 1596 2389 L 1603 2390 L 1618 2374 L 1627 2374 L 1634 2366 L 1643 2366 L 1652 2357 L 1659 2358 L 1674 2342 L 1683 2342 L 1692 2333 L 1699 2334 L 1714 2318 L 1723 2318 L 1732 2309 L 1739 2310 L 1754 2294 L 1771 2294 L 1786 2278 L 1795 2278 L 1804 2269 L 1811 2270 L 1826 2254 L 1835 2254 L 1844 2245 L 1851 2246 L 1866 2230 L 1875 2230 L 1884 2221 L 1891 2222 L 1906 2206 L 1915 2206 L 1924 2197 L 1931 2198 L 1946 2182 L 1955 2182 L 1962 2174 L 1971 2174 L 1980 2165 L 1987 2166 L 2002 2150 L 2011 2150 L 2020 2141 L 2027 2142 L 2042 2126 L 2051 2126 L 2060 2117 L 2067 2118 L 2082 2102 L 2091 2102 L 2098 2094 L 2107 2094 L 2114 2086 L 2123 2086 L 2132 2077 L 2139 2078 L 2154 2062 L 2163 2062 L 2178 2046 L 2187 2046 L 2194 2038 L 2203 2038 L 2212 2029 L 2219 2030 L 2234 2014 L 2243 2014 L 2252 2005 L 2259 2006 L 2274 1990 L 2283 1990 L 2290 1982 L 2299 1982 L 2308 1973 L 2315 1974 L 2330 1958 L 2339 1958 L 2350 1947 L 2350 940 L 2339 929 L 2332 930 L 2323 921 L 2314 921 L 2299 905 L 2292 906 L 2283 897 L 2276 898 L 2267 889 L 2258 889 L 2243 873 L 2236 874 L 2227 865 L 2218 865 L 2203 849 L 2196 850 L 2187 841 L 2178 841 L 2163 825 L 2156 826 L 2147 817 L 2140 818 L 2131 809 L 2122 809 L 2107 793 L 2100 794 L 2091 785 L 2082 785 L 2067 769 L 2060 770 L 2051 761 L 2042 761 L 2027 745 L 2020 746 L 2011 737 L 2004 738 L 1995 729 L 1986 729 L 1971 713 L 1962 713 L 1947 697 L 1930 697 L 1915 681 L 1908 682 L 1899 673 L 1890 673 L 1875 657 L 1868 658 L 1859 649 L 1850 649 L 1835 633 L 1828 634 L 1819 625 L 1810 625 L 1795 609 L 1788 610 L 1779 601 L 1772 602 L 1763 593 L 1754 593 L 1739 577 L 1732 578 L 1723 569 L 1714 569 L 1699 553 L 1692 554 L 1683 545 L 1674 545 L 1659 529 L 1652 530 L 1643 521 L 1636 522 L 1627 513 L 1618 513 L 1603 497 L 1596 498 L 1587 489 L 1580 490 L 1571 481 L 1562 481 L 1547 465 L 1540 466 L 1531 457 L 1522 457 L 1507 441 L 1500 442 L 1491 433 L 1482 433 L 1467 417 Z M 1452 445 L 1461 446 L 1468 454 L 1477 454 L 1492 470 L 1499 469 L 1508 478 L 1517 478 L 1532 494 L 1539 493 L 1548 502 L 1555 501 L 1564 510 L 1571 509 L 1580 518 L 1589 518 L 1604 534 L 1613 534 L 1628 550 L 1635 549 L 1644 558 L 1651 557 L 1660 566 L 1669 566 L 1684 582 L 1691 581 L 1700 590 L 1709 590 L 1724 606 L 1731 605 L 1740 614 L 1747 613 L 1756 622 L 1765 622 L 1780 638 L 1787 637 L 1796 646 L 1805 646 L 1820 662 L 1827 661 L 1836 670 L 1845 670 L 1860 686 L 1867 685 L 1876 694 L 1883 693 L 1892 702 L 1899 701 L 1908 710 L 1917 710 L 1932 726 L 1939 725 L 1948 734 L 1957 734 L 1972 750 L 1979 749 L 1988 758 L 1997 758 L 2012 774 L 2019 773 L 2028 782 L 2037 782 L 2052 798 L 2059 797 L 2068 806 L 2075 805 L 2084 814 L 2093 814 L 2108 830 L 2115 829 L 2124 838 L 2133 838 L 2148 854 L 2155 853 L 2164 862 L 2173 862 L 2188 878 L 2195 877 L 2204 886 L 2213 886 L 2228 902 L 2235 901 L 2244 910 L 2251 909 L 2260 918 L 2267 917 L 2276 926 L 2285 926 L 2300 942 L 2309 942 L 2322 956 L 2321 1933 L 2309 1945 L 2300 1945 L 2285 1961 L 2276 1961 L 2269 1969 L 2260 1969 L 2251 1978 L 2244 1977 L 2229 1993 L 2220 1993 L 2211 2002 L 2204 2001 L 2189 2017 L 2180 2017 L 2171 2026 L 2164 2025 L 2149 2041 L 2140 2041 L 2131 2050 L 2124 2049 L 2109 2065 L 2100 2065 L 2093 2073 L 2084 2073 L 2075 2082 L 2068 2081 L 2053 2097 L 2044 2097 L 2037 2105 L 2028 2105 L 2019 2114 L 2012 2113 L 1997 2129 L 1988 2129 L 1979 2138 L 1972 2137 L 1957 2153 L 1948 2153 L 1939 2162 L 1932 2161 L 1917 2177 L 1908 2177 L 1901 2185 L 1892 2185 L 1883 2194 L 1876 2193 L 1861 2209 L 1852 2209 L 1843 2218 L 1836 2217 L 1821 2233 L 1812 2233 L 1803 2242 L 1796 2241 L 1781 2257 L 1772 2257 L 1765 2265 L 1756 2265 L 1749 2273 L 1740 2273 L 1731 2282 L 1724 2281 L 1709 2297 L 1700 2297 L 1691 2306 L 1684 2305 L 1669 2321 L 1660 2321 L 1651 2330 L 1644 2329 L 1629 2345 L 1620 2345 L 1613 2353 L 1604 2353 L 1595 2362 L 1588 2361 L 1573 2377 L 1564 2377 L 1555 2386 L 1548 2385 L 1533 2401 L 1524 2401 L 1515 2410 L 1508 2409 L 1493 2425 L 1484 2425 L 1477 2433 L 1468 2433 L 1459 2442 L 1450 2441 L 1443 2433 L 1434 2433 L 1427 2425 L 1418 2425 L 1403 2409 L 1394 2409 L 1379 2393 L 1372 2394 L 1363 2385 L 1356 2386 L 1347 2377 L 1338 2377 L 1323 2361 L 1316 2362 L 1307 2353 L 1298 2353 L 1283 2337 L 1276 2338 L 1267 2329 L 1260 2330 L 1251 2321 L 1242 2321 L 1227 2305 L 1220 2306 L 1211 2297 L 1202 2297 L 1187 2281 L 1180 2282 L 1171 2273 L 1162 2273 L 1147 2257 L 1140 2258 L 1131 2249 L 1124 2250 L 1115 2241 L 1106 2241 L 1091 2225 L 1084 2226 L 1075 2217 L 1066 2217 L 1051 2201 L 1044 2202 L 1035 2193 L 1026 2193 L 1011 2177 L 1004 2178 L 995 2169 L 988 2170 L 979 2161 L 970 2161 L 955 2145 L 948 2146 L 939 2137 L 932 2138 L 923 2129 L 914 2129 L 899 2113 L 892 2114 L 883 2105 L 874 2105 L 859 2089 L 852 2090 L 843 2081 L 836 2082 L 827 2073 L 818 2073 L 803 2057 L 796 2058 L 787 2049 L 778 2049 L 763 2033 L 756 2034 L 747 2025 L 738 2025 L 723 2009 L 716 2010 L 707 2001 L 700 2002 L 691 1993 L 682 1993 L 667 1977 L 660 1978 L 651 1969 L 644 1970 L 635 1961 L 626 1961 L 603 1937 L 593 1937 L 589 1931 L 590 954 L 602 942 L 611 942 L 618 934 L 627 934 L 636 925 L 643 926 L 658 910 L 667 910 L 676 901 L 683 902 L 698 886 L 707 886 L 716 877 L 723 878 L 738 862 L 747 862 L 756 853 L 763 854 L 778 838 L 787 838 L 794 830 L 803 830 L 812 821 L 819 822 L 834 806 L 843 806 L 852 797 L 859 798 L 874 782 L 883 782 L 892 773 L 899 774 L 914 758 L 923 758 L 932 749 L 939 750 L 954 734 L 963 734 L 970 726 L 979 726 L 986 718 L 995 718 L 1004 709 L 1011 710 L 1026 694 L 1035 694 L 1044 685 L 1051 686 L 1066 670 L 1075 670 L 1084 661 L 1091 662 L 1106 646 L 1115 646 L 1124 637 L 1131 638 L 1146 622 L 1155 622 L 1162 614 L 1171 614 L 1180 605 L 1187 606 L 1202 590 L 1211 590 L 1220 581 L 1227 582 L 1242 566 L 1251 566 L 1258 558 L 1267 558 L 1276 549 L 1283 550 L 1298 534 L 1307 534 L 1322 518 L 1331 518 L 1338 510 L 1347 510 L 1356 501 L 1363 502 L 1378 486 L 1387 486 L 1396 477 L 1403 478 L 1418 462 L 1427 462 L 1434 454 L 1443 454 Z" fill="#0B0F14" fill-rule="evenodd"/>
</svg>